<svg xmlns="http://www.w3.org/2000/svg" xmlns:svg="http://www.w3.org/2000/svg" id="svg4" width="240" height="240" version="1.1" viewBox="0 0 240 240"><metadata id="metadata10"/><path style="fill:#fff;fill-opacity:1;stroke-width:5" id="path2" d="M 200,50 H 40 C 28.95,50 20.1,58.95 20.1,70 L 20,170 c 0,11.05 8.95,20 20,20 h 160 c 11.05,0 20,-8.95 20,-20 V 70 c 0,-11.05 -8.95,-20 -20,-20 z m -90,30 h 20 v 20 h -20 z m 0,30 h 20 v 20 H 110 Z M 80,80 h 20 v 20 H 80 Z m 0,30 h 20 v 20 H 80 Z M 70,130 H 50 v -20 h 20 z m 0,-30 H 50 V 80 h 20 z m 90,70 H 80 v -20 h 80 z m 0,-40 h -20 v -20 h 20 z m 0,-30 H 140 V 80 h 20 z m 30,30 h -20 v -20 h 20 z m 0,-30 H 170 V 80 h 20 z"/></svg>