<svg xmlns="http://www.w3.org/2000/svg" xmlns:svg="http://www.w3.org/2000/svg" id="svg6" width="240" height="240" version="1.1" viewBox="0 0 240 240"><metadata id="metadata12"/><path id="path2" fill="none" d="M 0,0 H 24 V 24 H 0 Z"/><path style="stroke-width:11.1111" id="path4" fill="#fff" d="M 120,20 C 64.777778,20 20,64.777778 20,120 c 0,55.22222 44.777778,100 100,100 9.22222,0 16.66667,-7.44444 16.66667,-16.66667 0,-4.33333 -1.66667,-8.22222 -4.33334,-11.22222 -2.55555,-2.88889 -4.22222,-6.77778 -4.22222,-11 0,-9.22222 7.44445,-16.66667 16.66667,-16.66667 h 19.66666 C 195.11111,164.44444 220,139.55556 220,108.88889 220,59.777778 175.22222,20 120,20 Z M 58.888889,120 c -9.222222,0 -16.666667,-7.44444 -16.666667,-16.66667 0,-9.222219 7.444445,-16.666663 16.666667,-16.666663 9.222222,0 16.666667,7.444444 16.666667,16.666663 0,9.22223 -7.444445,16.66667 -16.666667,16.66667 z M 92.222222,75.555556 c -9.222222,0 -16.666666,-7.444445 -16.666666,-16.666667 0,-9.222222 7.444444,-16.666667 16.666666,-16.666667 9.222218,0 16.666668,7.444445 16.666668,16.666667 0,9.222222 -7.44445,16.666667 -16.666668,16.666667 z m 55.555558,0 c -9.22222,0 -16.66667,-7.444445 -16.66667,-16.666667 0,-9.222222 7.44445,-16.666667 16.66667,-16.666667 9.22222,0 16.66666,7.444445 16.66666,16.666667 0,9.222222 -7.44444,16.666667 -16.66666,16.666667 z M 181.11111,120 c -9.22222,0 -16.66667,-7.44444 -16.66667,-16.66667 0,-9.222219 7.44445,-16.666663 16.66667,-16.666663 9.22222,0 16.66667,7.444444 16.66667,16.666663 0,9.22223 -7.44445,16.66667 -16.66667,16.66667 z"/></svg>