<svg xmlns="http://www.w3.org/2000/svg" xmlns:svg="http://www.w3.org/2000/svg" id="Capa_1" width="240" height="240" x="0" y="0" version="1.1" viewBox="0 0 240 240" xml:space="preserve"><metadata id="metadata41"/><g style="fill:#fff;fill-opacity:1" id="g4" transform="matrix(8.1990735,0,0,8.1990735,20,20)"><path id="path2" d="M 12.196,0 C 5.46,0 0,5.46 0,12.196 c 0,6.736 5.46,12.197 12.196,12.197 6.736,0 12.197,-5.461 12.197,-12.197 C 24.393,5.46 18.932,0 12.196,0 Z m 0,21.782 c -5.295,0 -9.586,-4.291 -9.586,-9.586 0,-5.295 4.291,-9.586 9.586,-9.586 5.295,0 9.586,4.291 9.586,9.586 0,5.295 -4.291,9.586 -9.586,9.586 z M 14.1,7.436 v 9.519 c 0,1.051 -0.852,1.904 -1.904,1.904 -1.052,0 -1.904,-0.852 -1.904,-1.904 V 7.436 c 0,-1.051 0.852,-1.904 1.904,-1.904 1.052,0 1.904,0.853 1.904,1.904 z" style="fill:#fff;fill-opacity:1"/></g></svg>