<svg xmlns="http://www.w3.org/2000/svg" xmlns:svg="http://www.w3.org/2000/svg" id="svg6" width="240" height="240" version="1.1" viewBox="0 0 240 240"><metadata id="metadata12"/><path id="path2" fill="none" d="M 0,0 H 24 V 24 H 0 Z"/><path style="stroke-width:10" id="path4" fill="#fff" d="m 177.92793,103.7 c -7.5,-47.6 -50,-83.5 -98.199998,-83.7 -4.9,0 -9.7,0.3 -14.4,1 -5,0.7 -6,7.3 -1.4,9.6 32.8,16.3 55.299998,50.2 55.299998,89.4 0,39.2 -22.499998,73.1 -55.299998,89.5 -4.5,2.3 -3.6,8.9 1.4,9.6 4.7,0.6 9.5,0.9 14.4,0.9 48.199998,-0.2 90.699998,-36.1 98.199998,-83.7 0.9,-5.5 1.1,-10.9 1.1,-16.3 0,-5.4 -0.2,-10.8 -1.1,-16.3 z"/></svg>